# xmcd CD database file
#
# Track frame offsets:
#	150
#	16199
#	38070
#	54697
#	81391
#	105908
#	126651
#	127316
#	146405
#	165169
#	188599
#	213249
#	242794
#
# Disc length: 3241 seconds
#
# Revision: 4
# Processed by: cddbd v1.5PL3 Copyright (c) Steve Scherf et al.
# Submitted via: CDex 1.51
#
DISCID=af0ca70d
DTITLE=Drive-by Truckers - Gangstabilly
DYEAR=1998
DGENRE=Rock and Roll
TTITLE0=Wife Beater
TTITLE1=Demonic Possession
TTITLE2=The Tough Sell
TTITLE3=The Living Bubba
TTITLE4=Late For Church
TTITLE5=Panties In Your Purse
TTITLE6=Side 1 Of Record Ending Noise
TTITLE7=Why Henry Drinks
TTITLE8=18 Wheels of Love
TTITLE9=Steve McQueen
TTITLE10=Buttholeville
TTITLE11=Sandwiches for the Road
TTITLE12=Side 2 Of Record Ending Noise
EXTD=YEAR: 1998
EXTT0=
EXTT1=
EXTT2=
EXTT3=
EXTT4=
EXTT5=
EXTT6=
EXTT7=
EXTT8=
EXTT9=
EXTT10=
EXTT11=
EXTT12=
PLAYORDER=
